# xmcd
#
# Track frame offsets:
#        150
#        11760
#        32395
#        43850
#        71635
#        89940
#        116247
#        120120
#        140345
#        164915
#        193557
#        207550
#        239042
#
# Disc length: 3565 seconds
#
# Revision: 0
# Processed by: cddbd v1.5.1PL2 Copyright (c) Steve Scherf et al.
# Submitted via: ExactAudioCopy v0.95b3
#
DISCID=c60deb0d
DTITLE=KENSO - Chilling Heat Live in Tokyo 2004
DYEAR=2005
DGENRE=Progressive Rock
TTITLE0=Mediterranian and Aryan
TTITLE1=Release yourself
TTITLE2=Taro to iu ikikata
TTITLE3=Bifuka
TTITLE4=Gips
TTITLE5=Echi dal Foro Romano
TTITLE6=Bass solo
TTITLE7=Let us go with the child who makes wishes come true
TTITLE8=Anesthesia
TTITLE9=Sora ni hikaru (Shining in the sky)
TTITLE10=Les phases de la lune II
TTITLE11=The ancient in my brain
TTITLE12=Good days bad days
EXTD=
EXTT0=
EXTT1=
EXTT2=
EXTT3=
EXTT4=
EXTT5=
EXTT6=
EXTT7=
EXTT8=
EXTT9=
EXTT10=
EXTT11=
EXTT12=
PLAYORDER=
